<svg width="179" height="85" viewBox="0 0 179 85" fill="none" xmlns="http://www.w3.org/2000/svg">
<path d="M19.847 61C17.807 61 16.207 60.54 15.047 59.62C13.887 58.66 13.307 57.26 13.307 55.42C13.307 53.98 13.567 52.78 14.087 51.82C14.647 50.86 15.647 49.8 17.087 48.64L41.867 28.48C42.667 27.84 43.207 27.26 43.487 26.74C43.807 26.18 43.967 25.52 43.967 24.76C43.967 23.4 43.127 22.72 41.447 22.72H16.967C16.207 22.72 15.587 22.58 15.107 22.3C14.667 21.98 14.447 21.52 14.447 20.92C14.447 19.64 15.287 19 16.967 19H41.987C44.027 19 45.627 19.46 46.787 20.38C47.947 21.3 48.527 22.7 48.527 24.58C48.527 26.06 48.247 27.26 47.687 28.18C47.167 29.1 46.187 30.14 44.747 31.3L19.907 51.52C19.147 52.12 18.607 52.7 18.287 53.26C18.007 53.82 17.867 54.48 17.867 55.24C17.867 56.6 18.767 57.28 20.567 57.28H46.547C47.307 57.28 47.907 57.44 48.347 57.76C48.787 58.04 49.007 58.48 49.007 59.08C49.007 59.72 48.787 60.2 48.347 60.52C47.907 60.84 47.307 61 46.547 61H19.847Z" fill="#00CEEA"/>
<path d="M56.3251 61.6C52.4051 61.6 49.3251 60.74 47.0851 59.02C44.8851 57.3 43.7851 54.92 43.7851 51.88C43.7851 48.88 44.9451 46.5 47.2651 44.74C49.6251 42.98 52.8251 42.1 56.8651 42.1C59.2251 42.1 61.3051 42.42 63.1051 43.06C64.9451 43.7 66.3651 44.56 67.3651 45.64V41.8C67.3651 39.52 66.6051 37.78 65.0851 36.58C63.6051 35.38 61.4251 34.78 58.5451 34.78C54.8251 34.78 51.6051 35.66 48.8851 37.42C48.2051 37.82 47.6451 38.02 47.2051 38.02C46.8051 38.02 46.4051 37.86 46.0051 37.54C45.5651 37.18 45.3451 36.72 45.3451 36.16C45.3451 35.56 45.6051 35.06 46.1251 34.66C47.5651 33.54 49.3851 32.66 51.5851 32.02C53.8251 31.34 56.1051 31 58.4251 31C62.6651 31 65.9451 31.96 68.2651 33.88C70.6251 35.8 71.8051 38.5 71.8051 41.98V59.26C71.8051 60.82 71.0851 61.6 69.6451 61.6C69.0051 61.6 68.4851 61.4 68.0851 61C67.6851 60.56 67.4851 60 67.4851 59.32V57.16C65.0051 60.12 61.2851 61.6 56.3251 61.6ZM56.8651 57.94C59.9851 57.94 62.5251 57.36 64.4851 56.2C66.4451 55 67.4251 53.46 67.4251 51.58C67.4251 49.7 66.5051 48.26 64.6651 47.26C62.8651 46.22 60.3051 45.7 56.9851 45.7C54.1851 45.7 52.0251 46.24 50.5051 47.32C48.9851 48.36 48.2251 49.88 48.2251 51.88C48.2251 53.84 48.9651 55.34 50.4451 56.38C51.9251 57.42 54.0651 57.94 56.8651 57.94ZM77.8154 78.94C77.1354 78.94 76.5954 78.72 76.1954 78.28C75.8354 77.88 75.6554 77.3 75.6554 76.54V33.4C75.6554 32.64 75.8354 32.06 76.1954 31.66C76.5954 31.22 77.1354 31 77.8154 31C78.5354 31 79.0754 31.22 79.4354 31.66C79.8354 32.1 80.0354 32.68 80.0354 33.4V37.24C83.1154 33.08 87.5554 31 93.3554 31C98.1954 31 101.995 32.34 104.755 35.02C107.555 37.7 108.955 41.38 108.955 46.06C108.955 49.22 108.315 51.98 107.035 54.34C105.755 56.66 103.915 58.46 101.515 59.74C99.1554 60.98 96.3754 61.6 93.1754 61.6C90.4154 61.6 87.9754 61.12 85.8554 60.16C83.7754 59.16 81.8554 57.6 80.0954 55.48V76.54C80.0954 77.26 79.8954 77.84 79.4954 78.28C79.0954 78.72 78.5354 78.94 77.8154 78.94ZM92.8754 57.82C96.5154 57.82 99.3554 56.78 101.395 54.7C103.475 52.58 104.515 49.66 104.515 45.94C104.515 42.34 103.495 39.58 101.455 37.66C99.4554 35.74 96.5754 34.78 92.8154 34.78C88.8554 34.78 85.7354 35.8 83.4554 37.84C81.1754 39.84 80.0354 42.58 80.0354 46.06C80.0354 48.38 80.5554 50.44 81.5954 52.24C82.6754 54 84.1754 55.38 86.0954 56.38C88.0554 57.34 90.3154 57.82 92.8754 57.82ZM121.915 61.6C117.995 61.6 114.915 60.74 112.675 59.02C110.475 57.3 109.375 54.92 109.375 51.88C109.375 48.88 110.535 46.5 112.855 44.74C115.215 42.98 118.415 42.1 122.455 42.1C124.815 42.1 126.895 42.42 128.695 43.06C130.535 43.7 131.955 44.56 132.955 45.64V41.8C132.955 39.52 132.195 37.78 130.675 36.58C129.195 35.38 127.015 34.78 124.135 34.78C120.415 34.78 117.195 35.66 114.475 37.42C113.795 37.82 113.235 38.02 112.795 38.02C112.395 38.02 111.995 37.86 111.595 37.54C111.155 37.18 110.935 36.72 110.935 36.16C110.935 35.56 111.195 35.06 111.715 34.66C113.155 33.54 114.975 32.66 117.175 32.02C119.415 31.34 121.695 31 124.015 31C128.255 31 131.535 31.96 133.855 33.88C136.215 35.8 137.395 38.5 137.395 41.98V59.26C137.395 60.82 136.675 61.6 135.235 61.6C134.595 61.6 134.075 61.4 133.675 61C133.275 60.56 133.075 60 133.075 59.32V57.16C130.595 60.12 126.875 61.6 121.915 61.6ZM122.455 57.94C125.575 57.94 128.115 57.36 130.075 56.2C132.035 55 133.015 53.46 133.015 51.58C133.015 49.7 132.095 48.26 130.255 47.26C128.455 46.22 125.895 45.7 122.575 45.7C119.775 45.7 117.615 46.24 116.095 47.32C114.575 48.36 113.815 49.88 113.815 51.88C113.815 53.84 114.555 55.34 116.035 56.38C117.515 57.42 119.655 57.94 122.455 57.94ZM154.085 61.6C151.285 61.6 148.645 61.08 146.165 60.04C143.685 58.96 141.725 57.48 140.285 55.6C140.005 55.2 139.865 54.8 139.865 54.4C139.865 54 139.965 53.66 140.165 53.38C140.405 53.06 140.705 52.82 141.065 52.66C141.385 52.54 141.645 52.48 141.845 52.48C142.205 52.48 142.505 52.58 142.745 52.78C143.025 52.94 143.345 53.22 143.705 53.62C146.305 56.38 149.765 57.76 154.085 57.76C156.165 57.76 157.845 57.4 159.125 56.68C160.405 55.96 161.045 54.96 161.045 53.68C161.045 52.76 160.785 52.02 160.265 51.46C159.785 50.86 158.945 50.32 157.745 49.84C156.585 49.32 154.665 48.6 151.985 47.68C149.385 46.8 147.345 45.96 145.865 45.16C144.385 44.36 143.285 43.46 142.565 42.46C141.845 41.42 141.485 40.16 141.485 38.68C141.485 36.36 142.485 34.5 144.485 33.1C146.525 31.7 149.225 31 152.585 31C155.065 31 157.365 31.44 159.485 32.32C161.605 33.16 163.205 34.3 164.285 35.74C164.605 36.18 164.765 36.6 164.765 37C164.765 37.6 164.445 38.08 163.805 38.44C163.405 38.68 163.005 38.8 162.605 38.8C161.925 38.8 161.285 38.5 160.685 37.9C159.645 36.86 158.505 36.1 157.265 35.62C156.025 35.1 154.445 34.84 152.525 34.84C150.405 34.84 148.785 35.18 147.665 35.86C146.545 36.54 145.985 37.5 145.985 38.74C145.985 39.66 146.205 40.4 146.645 40.96C147.125 41.48 147.865 41.96 148.865 42.4C149.905 42.8 151.705 43.42 154.265 44.26C157.145 45.22 159.365 46.14 160.925 47.02C162.525 47.86 163.665 48.8 164.345 49.84C165.065 50.88 165.425 52.16 165.425 53.68C165.425 56.08 164.365 58 162.245 59.44C160.165 60.88 157.445 61.6 154.085 61.6Z" fill="white"/>
<rect x="75" y="31" width="5" height="54" rx="2.5" fill="white"/>
</svg>
