<svg width="38" height="67" viewBox="0 0 38 67" fill="none" xmlns="http://www.w3.org/2000/svg">
<path d="M10.5719 53C8.87188 53 7.53854 52.6167 6.57188 51.85C5.60521 51.05 5.12188 49.8833 5.12188 48.35C5.12188 47.15 5.33854 46.15 5.77188 45.35C6.23854 44.55 7.07188 43.6667 8.27188 42.7L28.9219 25.9C29.5885 25.3667 30.0385 24.8833 30.2719 24.45C30.5385 23.9833 30.6719 23.4333 30.6719 22.8C30.6719 21.6667 29.9719 21.1 28.5719 21.1H8.17188C7.53854 21.1 7.02188 20.9833 6.62188 20.75C6.25521 20.4833 6.07188 20.1 6.07188 19.6C6.07188 18.5333 6.77188 18 8.17188 18H29.0219C30.7219 18 32.0552 18.3833 33.0219 19.15C33.9885 19.9167 34.4719 21.0833 34.4719 22.65C34.4719 23.8833 34.2385 24.8833 33.7719 25.65C33.3385 26.4167 32.5219 27.2833 31.3219 28.25L10.6219 45.1C9.98854 45.6 9.53854 46.0833 9.27188 46.55C9.03854 47.0167 8.92188 47.5667 8.92188 48.2C8.92188 49.3333 9.67188 49.9 11.1719 49.9H32.8219C33.4552 49.9 33.9552 50.0333 34.3219 50.3C34.6885 50.5333 34.8719 50.9 34.8719 51.4C34.8719 51.9333 34.6885 52.3333 34.3219 52.6C33.9552 52.8667 33.4552 53 32.8219 53H10.5719Z" fill="white"/>
<path d="M10.5719 53C8.87188 53 7.53854 52.6167 6.57188 51.85C5.60521 51.05 5.12188 49.8833 5.12188 48.35C5.12188 47.15 5.33854 46.15 5.77188 45.35C6.23854 44.55 7.07188 43.6667 8.27188 42.7L28.9219 25.9C29.5885 25.3667 30.0385 24.8833 30.2719 24.45C30.5385 23.9833 30.6719 23.4333 30.6719 22.8C30.6719 21.6667 29.9719 21.1 28.5719 21.1H8.17188C7.53854 21.1 7.02188 20.9833 6.62188 20.75C6.25521 20.4833 6.07188 20.1 6.07188 19.6C6.07188 18.5333 6.77188 18 8.17188 18H29.0219C30.7219 18 32.0552 18.3833 33.0219 19.15C33.9885 19.9167 34.4719 21.0833 34.4719 22.65C34.4719 23.8833 34.2385 24.8833 33.7719 25.65C33.3385 26.4167 32.5219 27.2833 31.3219 28.25L10.6219 45.1C9.98854 45.6 9.53854 46.0833 9.27188 46.55C9.03854 47.0167 8.92188 47.5667 8.92188 48.2C8.92188 49.3333 9.67188 49.9 11.1719 49.9H32.8219C33.4552 49.9 33.9552 50.0333 34.3219 50.3C34.6885 50.5333 34.8719 50.9 34.8719 51.4C34.8719 51.9333 34.6885 52.3333 34.3219 52.6C33.9552 52.8667 33.4552 53 32.8219 53H10.5719Z" fill="#00CEEA"/>
<path d="M8.57188 51C6.87188 51 5.53854 50.6167 4.57188 49.85C3.60521 49.05 3.12188 47.8833 3.12188 46.35C3.12188 45.15 3.33854 44.15 3.77188 43.35C4.23854 42.55 5.07188 41.6667 6.27188 40.7L26.9219 23.9C27.5885 23.3667 28.0385 22.8833 28.2719 22.45C28.5385 21.9833 28.6719 21.4333 28.6719 20.8C28.6719 19.6667 27.9719 19.1 26.5719 19.1H6.17188C5.53854 19.1 5.02188 18.9833 4.62188 18.75C4.25521 18.4833 4.07188 18.1 4.07188 17.6C4.07188 16.5333 4.77188 16 6.17188 16H27.0219C28.7219 16 30.0552 16.3833 31.0219 17.15C31.9885 17.9167 32.4719 19.0833 32.4719 20.65C32.4719 21.8833 32.2385 22.8833 31.7719 23.65C31.3385 24.4167 30.5219 25.2833 29.3219 26.25L8.62188 43.1C7.98854 43.6 7.53854 44.0833 7.27188 44.55C7.03854 45.0167 6.92188 45.5667 6.92188 46.2C6.92188 47.3333 7.67188 47.9 9.17188 47.9H30.8219C31.4552 47.9 31.9552 48.0333 32.3219 48.3C32.6885 48.5333 32.8719 48.9 32.8719 49.4C32.8719 49.9333 32.6885 50.3333 32.3219 50.6C31.9552 50.8667 31.4552 51 30.8219 51H8.57188Z" fill="white"/>
<path d="M8.57188 51C6.87188 51 5.53854 50.6167 4.57188 49.85C3.60521 49.05 3.12188 47.8833 3.12188 46.35C3.12188 45.15 3.33854 44.15 3.77188 43.35C4.23854 42.55 5.07188 41.6667 6.27188 40.7L26.9219 23.9C27.5885 23.3667 28.0385 22.8833 28.2719 22.45C28.5385 21.9833 28.6719 21.4333 28.6719 20.8C28.6719 19.6667 27.9719 19.1 26.5719 19.1H6.17188C5.53854 19.1 5.02188 18.9833 4.62188 18.75C4.25521 18.4833 4.07188 18.1 4.07188 17.6C4.07188 16.5333 4.77188 16 6.17188 16H27.0219C28.7219 16 30.0552 16.3833 31.0219 17.15C31.9885 17.9167 32.4719 19.0833 32.4719 20.65C32.4719 21.8833 32.2385 22.8833 31.7719 23.65C31.3385 24.4167 30.5219 25.2833 29.3219 26.25L8.62188 43.1C7.98854 43.6 7.53854 44.0833 7.27188 44.55C7.03854 45.0167 6.92188 45.5667 6.92188 46.2C6.92188 47.3333 7.67188 47.9 9.17188 47.9H30.8219C31.4552 47.9 31.9552 48.0333 32.3219 48.3C32.6885 48.5333 32.8719 48.9 32.8719 49.4C32.8719 49.9333 32.6885 50.3333 32.3219 50.6C31.9552 50.8667 31.4552 51 30.8219 51H8.57188Z" fill="white"/>
</svg>
